<svg preserveAspectRatio="none" overflow="visible" style="display: block;" width="62.2866" height="53.214" viewBox="0 0 62.2866 53.214" fill="none" xmlns="http://www.w3.org/2000/svg">
<path id="Vector" d="M44.4883 12.7157C45.2283 11.8357 45.9483 10.9257 46.6483 9.98572M5.2583 36.1457C5.2583 36.1457 26.4383 32.2157 43.2483 14.5857M43.2083 17.5657C44.8283 15.7857 46.3883 13.8857 47.8483 11.8457M47.4283 15.7257C48.0983 14.8957 48.7483 14.0357 49.3783 13.1557M54.4683 7.38571L54.7783 9.36571L53.0483 11.7657C53.0483 11.7657 52.7283 9.89571 52.1883 9.37571M50.3083 4.48572L48.3283 4.59572L46.3983 6.72572C46.3983 6.72572 47.9883 6.68572 49.0283 6.98572M49.6783 7.52571C49.6783 7.52571 49.1983 8.20571 48.8883 8.69571C48.5783 9.18571 48.9983 10.3857 48.9983 10.3857C48.9983 10.3857 50.0583 10.4357 50.6083 9.88571C51.1583 9.33571 51.4483 8.97571 51.4483 8.97571M41.3583 52.0857V24.3557C41.3583 23.2857 41.3583 22.6957 41.7483 22.1957C41.8383 22.0757 41.9483 21.9657 42.0783 21.8657C42.5783 21.4757 43.1683 21.4757 44.2383 21.4757H51.9983C53.0683 21.4757 53.6583 21.4757 54.1583 21.8657C54.2783 21.9557 54.3883 22.0657 54.4883 22.1957C54.8783 22.6957 54.8783 23.2857 54.8783 24.3557V36.3657M23.2383 52.0857V36.1357C23.2383 35.0657 23.2383 34.4757 23.6283 33.9757C23.7183 33.8557 23.8283 33.7457 23.9583 33.6457C24.4583 33.2557 25.0483 33.2557 26.1183 33.2557H33.8783C34.9483 33.2557 35.5383 33.2557 36.0383 33.6457C36.1583 33.7357 36.2683 33.8457 36.3683 33.9757C36.7583 34.4757 36.7583 35.0657 36.7583 36.1357V52.0857M5.1983 52.0857V42.8757C5.1983 41.8057 5.1983 41.2157 5.5883 40.7157C5.6783 40.5957 5.7883 40.4857 5.9183 40.3857C6.4183 39.9957 7.0083 39.9957 8.0783 39.9957H15.8383C16.9083 39.9957 17.4983 39.9957 17.9983 40.3857C18.1183 40.4757 18.2283 40.5857 18.3283 40.7157C18.7183 41.2157 18.7183 41.8057 18.7183 42.8757V52.0857M48.3283 52.2357H0.518293M51.5983 46.2257L53.8183 48.4457L58.2283 43.7157M10.1183 48.4757L11.7583 43.8857H12.1083L13.7983 48.4557M13.1083 46.9557H10.7583M28.6483 41.5357H30.5883C30.5883 41.5357 31.5383 41.4957 31.5383 40.4957C31.5383 39.9557 31.2283 39.3757 30.2583 39.3757H28.6883L28.6483 44.1957H30.5383C31.2183 44.1957 31.7683 43.7257 31.7683 42.8657C31.7683 41.4457 30.4183 41.5357 30.4183 41.5357M49.8483 31.6757C49.5583 32.1157 49.0583 32.3957 48.4783 32.3957H48.2783C47.3783 32.3957 46.6583 31.6957 46.6583 30.8357V29.1257C46.6583 28.2657 47.3883 27.5657 48.2783 27.5657H48.4783C49.0083 27.5657 49.4883 27.8157 49.7783 28.1957L49.8383 28.2857M49.1383 7.02572L52.1783 9.37572C52.1783 9.37572 57.5483 5.80572 56.6483 0.52572C56.6483 0.52572 51.8983 0.0357196 49.1383 7.01572V7.02572ZM54.3483 4.52572C54.3483 4.98412 53.9767 5.35572 53.5183 5.35572C53.0599 5.35572 52.6883 4.98412 52.6883 4.52572C52.6883 4.06733 53.0599 3.69572 53.5183 3.69572C53.9767 3.69572 54.3483 4.06733 54.3483 4.52572ZM61.7683 45.8457C61.7683 49.6289 58.7014 52.6957 54.9183 52.6957C51.1351 52.6957 48.0683 49.6289 48.0683 45.8457C48.0683 42.0626 51.1351 38.9957 54.9183 38.9957C58.7014 38.9957 61.7683 42.0626 61.7683 45.8457Z" stroke="#D5B067" stroke-width="1.03659" stroke-linecap="round" stroke-linejoin="round"/>
</svg>
